<svg xmlns="http://www.w3.org/2000/svg" height="512pt" version="1.1" viewBox="-16 0 512 512.00098" width="512pt">
<g id="surface1">
<path d="M 478.527344 34.316406 C 476.433594 26.558594 471.558594 18.84375 464.800781 12.597656 C 449.828125 -1.246094 430.375 -4.058594 419.558594 6.050781 L 337.894531 82.28125 C 334.824219 85.144531 334.660156 89.957031 337.523438 93.027344 C 340.390625 96.097656 345.199219 96.261719 348.269531 93.398438 L 429.9375 17.164062 C 434.03125 13.339844 445.113281 15.109375 454.476562 23.765625 C 459.09375 28.03125 462.503906 33.320312 463.847656 38.289062 C 464.921875 42.253906 464.609375 45.691406 462.992188 47.726562 L 304.601562 246.609375 L 244.074219 190.660156 L 327.390625 112.886719 C 330.460938 110.019531 330.628906 105.210938 327.761719 102.140625 C 324.894531 99.070312 320.085938 98.902344 317.015625 101.769531 L 140.523438 266.519531 C 116.308594 259.855469 90.15625 265.300781 68.070312 281.78125 C 38.765625 303.648438 21.488281 340.851562 22.980469 378.875 C 25.421875 441.027344 22.847656 476.707031 2.019531 499.234375 C -0.0742188 501.503906 -0.589844 504.808594 0.710938 507.605469 C 1.964844 510.296875 4.65625 512 7.601562 512 C 7.71875 512 7.839844 511.996094 7.960938 511.992188 C 10.882812 511.855469 80.210938 508.351562 142.265625 484.066406 C 146.175781 482.535156 148.105469 478.121094 146.574219 474.210938 C 145.042969 470.300781 140.632812 468.371094 136.722656 469.902344 C 94.582031 486.398438 47.726562 492.996094 23.59375 495.457031 C 38.511719 469.691406 40.351562 433.691406 38.175781 378.28125 C 36.878906 345.1875 51.816406 312.882812 77.164062 293.96875 C 96.339844 279.660156 118.078125 275.367188 138.554688 281.789062 L 221.34375 358.320312 C 224.894531 379.960938 221.335938 399.519531 210.703125 416.472656 C 201.082031 431.824219 185.507812 445.480469 164.417969 457.070312 C 160.738281 459.09375 159.394531 463.71875 161.417969 467.398438 C 162.804688 469.917969 165.40625 471.339844 168.089844 471.339844 C 169.328125 471.339844 170.582031 471.039062 171.746094 470.398438 C 195.128906 457.546875 212.574219 442.121094 223.589844 424.550781 C 236.132812 404.546875 240.441406 381.691406 236.464844 356.582031 L 474.882812 57.203125 C 479.621094 51.257812 480.914062 43.125 478.527344 34.316406 Z M 232.929688 201.0625 L 295.105469 258.539062 L 227.558594 343.355469 L 153.667969 275.050781 Z M 232.929688 201.0625 " style=" stroke:none;fill-rule:nonzero;fill:rgb(0%,0%,0%);fill-opacity:1;" />
</g>
</svg>