<?xml version="1.0" encoding="iso-8859-1"?>
<!-- Generator: Adobe Illustrator 19.0.0, SVG Export Plug-In . SVG Version: 6.00 Build 0)  -->
<svg version="1.1" id="Capa_1" xmlns="http://www.w3.org/2000/svg" xmlns:xlink="http://www.w3.org/1999/xlink" x="0px" y="0px"
	 viewBox="0 0 463 463" style="enable-background:new 0 0 463 463;" xml:space="preserve">
<path d="M375.5,120H263V7.5c0-4.142-3.357-7.5-7.5-7.5h-48c-4.143,0-7.5,3.358-7.5,7.5V120H87.5c-4.143,0-7.5,3.358-7.5,7.5v48
	c0,4.142,3.357,7.5,7.5,7.5H200v272.5c0,4.142,3.357,7.5,7.5,7.5h48c4.143,0,7.5-3.358,7.5-7.5V183h112.5c4.143,0,7.5-3.358,7.5-7.5
	v-48C383,123.358,379.643,120,375.5,120z M368,168H255.5c-4.143,0-7.5,3.358-7.5,7.5V448h-33V175.5c0-4.142-3.357-7.5-7.5-7.5H95
	v-33h112.5c4.143,0,7.5-3.358,7.5-7.5V15h33v112.5c0,4.142,3.357,7.5,7.5,7.5H368V168z"/>
<g>
</g>
<g>
</g>
<g>
</g>
<g>
</g>
<g>
</g>
<g>
</g>
<g>
</g>
<g>
</g>
<g>
</g>
<g>
</g>
<g>
</g>
<g>
</g>
<g>
</g>
<g>
</g>
<g>
</g>
</svg>
