<svg xmlns="http://www.w3.org/2000/svg" height="512pt" version="1.1" viewBox="-92 0 512 512.00118" width="512pt">
<g id="surface1">
<path d="M 243.972656 497 L 99.683594 497 C 95.542969 497 92.183594 500.359375 92.183594 504.5 C 92.183594 508.644531 95.542969 512 99.683594 512 L 243.972656 512 C 248.117188 512 251.472656 508.644531 251.472656 504.5 C 251.472656 500.359375 248.117188 497 243.972656 497 Z M 243.972656 497 " style=" stroke:none;fill-rule:nonzero;fill:rgb(0%,0%,0%);fill-opacity:1;" />
<path d="M 315.21875 213.550781 C 314.300781 210.796875 311.878906 208.820312 309 208.472656 C 306.121094 208.128906 303.300781 209.472656 301.753906 211.925781 C 291.566406 228.125 278.652344 240.402344 269.171875 248.121094 C 271.992188 212.15625 269.105469 177.84375 260.550781 145.90625 C 252.625 116.308594 239.847656 88.699219 222.578125 63.84375 C 193.105469 21.425781 161.007812 1.878906 159.65625 1.070312 C 157.3125 -0.335938 154.390625 -0.359375 152.03125 1.015625 C 149.667969 2.390625 148.238281 4.9375 148.300781 7.667969 C 149.8125 74.730469 120.253906 127.464844 107.511719 146.984375 C 89.234375 125.054688 63.890625 113.433594 62.691406 112.890625 C 60.574219 111.933594 58.132812 112.011719 56.082031 113.105469 C 54.03125 114.195312 52.601562 116.175781 52.210938 118.46875 C 47.285156 147.398438 37.292969 171.425781 27.628906 194.664062 C 14.046875 227.324219 0 261.097656 0 308.105469 C 0 398.433594 73.488281 471.917969 163.816406 471.917969 C 254.140625 471.917969 327.628906 398.433594 327.628906 308.105469 C 327.628906 251.429688 315.722656 215.070312 315.21875 213.550781 Z M 244.820312 432.878906 C 259.007812 415.140625 267.507812 392.65625 267.507812 368.226562 C 267.507812 331.015625 259.457031 312.152344 259.113281 311.367188 C 257.957031 308.722656 255.382812 306.972656 252.496094 306.875 C 249.628906 306.773438 246.921875 308.34375 245.589844 310.90625 C 234.6875 331.851562 218.734375 336.71875 217.925781 336.953125 C 213.957031 338.046875 211.613281 342.144531 212.683594 346.128906 C 213.761719 350.128906 217.875 352.5 221.875 351.421875 C 222.609375 351.222656 236.558594 347.300781 249.351562 332.152344 C 250.988281 340.589844 252.507812 352.617188 252.507812 368.226562 C 252.507812 417.132812 212.71875 456.921875 163.8125 456.921875 C 81.757812 456.921875 15 390.164062 15 308.105469 C 15 264.09375 27.863281 233.167969 41.480469 200.425781 C 50.335938 179.128906 59.460938 157.1875 65.046875 131.136719 C 74.914062 136.949219 91.113281 148.144531 101.421875 163.914062 C 102.746094 165.933594 104.957031 167.191406 107.367188 167.300781 C 109.773438 167.40625 112.09375 166.347656 113.585938 164.457031 C 115.585938 161.925781 160.035156 104.660156 163.179688 21.976562 C 174.578125 30.925781 192.949219 47.488281 210.261719 72.402344 C 226.539062 95.835938 238.585938 121.871094 246.0625 149.789062 C 255.4375 184.792969 257.625 222.90625 252.566406 263.082031 C 252.207031 265.925781 253.503906 268.726562 255.902344 270.296875 C 258.300781 271.863281 261.386719 271.929688 263.847656 270.460938 C 264.894531 269.835938 286.105469 257.015625 304.894531 233.378906 C 308.273438 248.703125 312.628906 274.882812 312.628906 308.105469 C 312.628906 360.308594 285.605469 406.308594 244.820312 432.878906 Z M 244.820312 432.878906 " style=" stroke:none;fill-rule:nonzero;fill:rgb(0%,0%,0%);fill-opacity:1;" />
<path d="M 185.84375 179.355469 C 184.042969 176.953125 180.980469 175.855469 178.0625 176.570312 C 175.144531 177.285156 172.933594 179.671875 172.445312 182.636719 C 165.816406 222.871094 146.53125 250.164062 137.289062 261.3125 C 124.289062 248.875 113.09375 246.53125 111.695312 246.28125 C 108.054688 245.628906 104.484375 247.722656 103.28125 251.21875 C 98.777344 264.277344 92.410156 275.949219 85.675781 288.304688 C 73.109375 311.34375 60.117188 335.167969 60.117188 368.226562 C 60.117188 376.375 61.066406 384.484375 62.9375 392.34375 C 63.757812 395.789062 66.832031 398.105469 70.226562 398.105469 C 70.800781 398.105469 71.386719 398.039062 71.972656 397.902344 C 76 396.941406 78.488281 392.898438 77.53125 388.867188 C 75.929688 382.148438 75.117188 375.203125 75.117188 368.226562 C 75.117188 338.992188 86.644531 317.859375 98.84375 295.484375 C 104.425781 285.246094 110.167969 274.714844 114.769531 263.300781 C 119.023438 265.46875 125.167969 269.59375 131.730469 277.25 C 133.070312 278.8125 135 279.757812 137.058594 279.859375 C 139.121094 279.960938 141.128906 279.207031 142.617188 277.777344 C 143.882812 276.5625 170.542969 250.53125 183.222656 203.609375 C 193.585938 222.53125 209.25 258.003906 212.648438 304.171875 C 212.953125 308.304688 216.542969 311.410156 220.679688 311.101562 C 224.808594 310.796875 227.910156 307.203125 227.609375 303.070312 C 222.121094 228.5 187.324219 181.328125 185.84375 179.355469 Z M 185.84375 179.355469 " style=" stroke:none;fill-rule:nonzero;fill:rgb(0%,0%,0%);fill-opacity:1;" />
</g>
</svg>